<?xml version="1.0" encoding="UTF-8"?><svg id="Layer_2" xmlns="http://www.w3.org/2000/svg" viewBox="0 0 465.14 65"><defs><style>.cls-1{fill:#fff;}.cls-2{fill:#fd9900;}</style></defs><g id="Layer_1-2"><g><g><path class="cls-2" d="M5.44,12.31c29.1-1.42,36.57-1.72,65.42-2.04,1.29-.01,2.6,1.51,3.91,2.32-1.25,.88-2.51,2.54-3.74,2.52-27.97-.54-35.93-1.26-63.89-1.97-.27,0-.53-.25-1.7-.84Z"/><path class="cls-2" d="M66.55,29.94c-26.31-.58-32.72-1.17-59.13-1.76-.04-.33-.07-.66-.11-1,25.15-2.2,30.48-1.4,55.71-2.4,3.44-.08,5.13,.74,3.53,5.15Z"/><path class="cls-2" d="M.72,40.61c25.9-.66,31.81-1.31,57.71-1.97,.38,.49,.77,.98,1.15,1.47-1.01,1.36-2.03,3.92-3.02,3.9-25.29-.39-30.58-1.04-55.87-1.65l.02-1.75Z"/><path class="cls-2" d="M.01,18.98c27.09-.68,34.19-1.36,61.76-2.05,.22,1.55,.41,2.91,.74,5.33-27.87-.7-35.19-1.38-62.52-2.06,0-.4,0-.81,.01-1.21Z"/><path class="cls-2" d="M68.26,49.46v5.27c-23.53-.65-26.76-1.28-49.99-1.92l-.02-1.49c23.17-.61,26.33-1.23,50-1.85Z"/><path class="cls-2" d="M74.77,35.87c-23.16-.64-32.76-.46-55.49-1.09,0-.47-.01-.93-.02-1.4,22.78-.64,32.43-.23,55.5-.88v3.37Z"/></g><path class="cls-2" d="M446.96,28.44h14.16c1.69,0,3.21,1.05,3.69,2.63,.7,1.59,.25,3.38-1.02,4.49l-32.5,28.44c-1.43,1.24-3.53,1.35-5.07,.23-1.54-1.12-2.09-3.15-1.35-4.89l9.76-22.78h-14.27c-1.58,0-3.09-1.05-3.69-2.63-.6-1.59-.15-3.38,1.13-4.49L450.31,1.01c1.43-1.25,3.53-1.34,5.07-.23s2.09,3.14,1.35,4.89l-9.76,22.77Z"/><g><path class="cls-1" d="M71.25,10.27c3.51,0,6.46,.79,8.84,2.37,2.38,1.58,4.38,3.76,5.98,6.53l-8.19,5.52c-.91-1.3-1.93-2.37-3.06-3.22-1.13-.85-2.53-1.27-4.22-1.27-1.47,0-2.48,.29-3.02,.88-.54,.58-.81,1.22-.81,1.92,0,.82,.29,1.52,.88,2.08,.59,.56,1.46,1.15,2.63,1.75l4.75,2.27c2.69,1.26,4.84,2.79,6.47,4.62,1.62,1.82,2.44,4.09,2.44,6.82,0,1.65-.33,3.31-.98,4.97-.65,1.67-1.64,3.19-2.96,4.55-1.32,1.37-2.98,2.48-4.97,3.35s-4.35,1.3-7.08,1.3c-4.12,0-7.64-1-10.56-2.99-2.92-1.99-5.23-4.59-6.92-7.8l8.12-5.27c1.26,1.82,2.68,3.29,4.26,4.42,1.58,1.13,3.41,1.69,5.49,1.69,1.3,0,2.38-.25,3.25-.75,.87-.5,1.3-1.29,1.3-2.37,0-.91-.36-1.67-1.07-2.27-.71-.61-1.77-1.26-3.15-1.95l-4.29-2.15c-2.86-1.39-5.03-3.02-6.5-4.91-1.47-1.88-2.21-4.15-2.21-6.79,0-1.95,.39-3.74,1.17-5.36,.78-1.62,1.86-3.03,3.25-4.23,1.39-1.19,3.03-2.11,4.94-2.76,1.91-.65,3.99-.98,6.24-.98Z"/><path class="cls-1" d="M127.08,21.13h-12.87l-5.79,32.83h-11.18l5.79-32.83h-12.87l1.75-10.07h36.92l-1.75,10.07Z"/><path class="cls-1" d="M159.84,53.95h-11.7l-.97-3.58h-15.08l-2.21,3.58h-12.61l27.24-43.68h3.58l11.76,43.68Zm-22.23-12.54h7.15l-1.82-9.56-5.33,9.56Z"/><path class="cls-1" d="M189.81,32.63l22.17-22.36h3.58l-7.67,43.68h-11.18l2.99-16.96-9.68,9.36h-3.58l-7.74-11.25-3.31,18.85h-11.18l7.67-43.68h3.57l14.37,22.36Z"/><path class="cls-1" d="M227.64,53.95h-11.18l7.54-42.9h11.18l-7.54,42.9Z"/><path class="cls-1" d="M274.11,54.73h-3.58l-19.17-23.33-3.96,22.56h-11.18l7.67-43.68h3.57l19.18,22.95,3.96-22.17h11.18l-7.67,43.68Z"/><path class="cls-1" d="M321.3,53.95h-11.7l-.97-3.58h-15.08l-2.21,3.58h-12.61l27.24-43.68h3.58l11.76,43.68Zm-22.23-12.54h7.15l-1.82-9.56-5.33,9.56Z"/><path class="cls-1" d="M348.14,11.05c2.47,0,4.7,.32,6.7,.98,1.99,.65,3.68,1.58,5.07,2.79,1.39,1.21,2.46,2.68,3.22,4.39,.76,1.71,1.14,3.63,1.14,5.75,0,2.43-.48,4.62-1.43,6.57-.95,1.95-2.28,3.6-3.96,4.94-1.69,1.34-3.7,2.37-6.01,3.09-2.32,.71-4.84,1.07-7.57,1.07h-6.11l-2.34,13.33h-11.18l7.54-42.9h14.95Zm-5.52,9.75l-1.76,10.07h6.31c1.69,0,3.05-.45,4.09-1.36s1.56-2.19,1.56-3.83c0-1.52-.42-2.71-1.27-3.58-.85-.87-2.03-1.3-3.54-1.3h-5.39Z"/><path class="cls-1" d="M387.99,11.05c2.47,0,4.7,.32,6.7,.98,1.99,.65,3.68,1.58,5.07,2.79,1.39,1.21,2.46,2.68,3.22,4.39,.76,1.71,1.14,3.63,1.14,5.75,0,2.43-.48,4.62-1.43,6.57-.95,1.95-2.28,3.6-3.96,4.94-1.69,1.34-3.7,2.37-6.01,3.09-2.32,.71-4.84,1.07-7.57,1.07h-6.11l-2.34,13.33h-11.18l7.54-42.9h14.95Zm-5.52,9.75l-1.76,10.07h6.31c1.69,0,3.05-.45,4.09-1.36s1.56-2.19,1.56-3.83c0-1.52-.42-2.71-1.27-3.58-.85-.87-2.03-1.3-3.54-1.3h-5.39Z"/></g></g></g></svg>